<?xml version="1.0" encoding="UTF-8"?>
<svg width="24px" height="20px" viewBox="0 0 24 20" version="1.1" xmlns="http://www.w3.org/2000/svg" xmlns:xlink="http://www.w3.org/1999/xlink">
    <!-- Generator: Sketch 57.1 (83088) - https://sketch.com -->
    <title></title>
    <desc>Created with Sketch.</desc>
    <g id="Symbols" stroke="none" stroke-width="1" fill="none" fill-rule="evenodd">
        <g id="check_in-copy" transform="translate(-8.000000, 2.000000)" fill="#4B81EC" fill-rule="nonzero">
            <g id="Group-2" transform="translate(0.000000, -2.000000)">
                <path d="M29.8214543,0.714265108 C30.9018128,0.714265108 31.7857424,1.59819473 31.7857424,2.67855316 L31.7857424,17.6071424 C31.7857424,18.6875008 30.9018128,19.5714304 29.8214543,19.5714304 L10.1785738,19.5714304 C9.09821534,19.5714304 8.21428571,18.6875008 8.21428571,17.6071424 L8.21428571,2.67855316 C8.21428571,1.59819473 9.09821534,0.714265108 10.1785738,0.714265108 L29.8214543,0.714265108 Z M10.1785738,2.28569555 C9.96986816,2.28569555 9.78571616,2.46984756 9.78571616,2.67855316 L9.78571616,5.42855644 L30.2143119,5.42855644 L30.2143119,2.67855316 C30.2143119,2.46984756 30.0301599,2.28569555 29.8214543,2.28569555 L10.1785738,2.28569555 Z M29.8214543,18 C30.0301599,18 30.2143119,17.815848 30.2143119,17.6071424 L30.2143119,10.1428478 L9.78571616,10.1428478 L9.78571616,17.6071424 C9.78571616,17.815848 9.96986816,18 10.1785738,18 L29.8214543,18 Z M11.3571466,16.4285696 L11.3571466,14.8571391 L14.5000075,14.8571391 L14.5000075,16.4285696 L11.3571466,16.4285696 Z M16.0714379,16.4285696 L16.0714379,14.8571391 L20.7857293,14.8571391 L20.7857293,16.4285696 L16.0714379,16.4285696 Z" id=""></path>
            </g>
        </g>
    </g>
</svg>