<?xml version="1.0" encoding="UTF-8"?>
<svg width="16px" height="16px" viewBox="0 0 16 16" version="1.1" xmlns="http://www.w3.org/2000/svg" xmlns:xlink="http://www.w3.org/1999/xlink">
    <!-- Generator: Sketch 57.1 (83088) - https://sketch.com -->
    <title></title>
    <desc>Created with Sketch.</desc>
    <g id="Page-1" stroke="none" stroke-width="1" fill="none" fill-rule="evenodd">
        <g id="Offers" transform="translate(-67.000000, -135.000000)" fill="#ffffff" fill-rule="nonzero">
            <g id="Group" transform="translate(67.000000, 134.000000)">
                <path d="M2.5,7.0625 C2.93750219,7.17708391 3.29687359,7.41145656 3.578125,7.765625 C3.85937641,8.11979344 4,8.53124766 4,9 C4,9.46875234 3.85937641,9.88020656 3.578125,10.234375 C3.29687359,10.5885434 2.93750219,10.8229161 2.5,10.9375 L2.5,16.5 C2.5,16.6354173 2.45052133,16.7526037 2.3515625,16.8515625 C2.25260367,16.9505213 2.13541734,17 2,17 C1.86458266,17 1.74739633,16.9505213 1.6484375,16.8515625 C1.54947867,16.7526037 1.5,16.6354173 1.5,16.5 L1.5,10.9375 C1.07291453,10.8229161 0.716147266,10.5885434 0.4296875,10.234375 C0.143227734,9.88020656 0,9.46875234 0,9 C0,8.53124766 0.143227734,8.11979344 0.4296875,7.765625 C0.716147266,7.41145656 1.07291453,7.17708391 1.5,7.0625 L1.5,1.5 C1.5,1.36458266 1.54947867,1.24739633 1.6484375,1.1484375 C1.74739633,1.04947867 1.86458266,1 2,1 C2.13541734,1 2.25260367,1.04947867 2.3515625,1.1484375 C2.45052133,1.24739633 2.5,1.36458266 2.5,1.5 L2.5,7.0625 Z M2,10 C2.28125141,10 2.5182282,9.90104266 2.7109375,9.703125 C2.9036468,9.50520734 3,9.27083469 3,9 C3,8.72916531 2.9036468,8.49479266 2.7109375,8.296875 C2.5182282,8.09895734 2.28125141,8 2,8 C1.71874859,8 1.4817718,8.09895734 1.2890625,8.296875 C1.0963532,8.49479266 1,8.72916531 1,9 C1,9.27083469 1.0963532,9.50520734 1.2890625,9.703125 C1.4817718,9.90104266 1.71874859,10 2,10 Z M8.5,10.0625 C8.93750219,10.1770839 9.29687359,10.4114566 9.578125,10.765625 C9.85937641,11.1197934 10,11.5312477 10,12 C10,12.4687523 9.85937641,12.8802066 9.578125,13.234375 C9.29687359,13.5885434 8.93750219,13.8229161 8.5,13.9375 L8.5,16.5 C8.5,16.6354173 8.45052133,16.7526037 8.3515625,16.8515625 C8.25260367,16.9505213 8.13541734,17 8,17 C7.86458266,17 7.74739633,16.9505213 7.6484375,16.8515625 C7.54947867,16.7526037 7.5,16.6354173 7.5,16.5 L7.5,13.9375 C7.07291453,13.8229161 6.71614727,13.5885434 6.4296875,13.234375 C6.14322773,12.8802066 6,12.4687523 6,12 C6,11.5312477 6.14322773,11.1197934 6.4296875,10.765625 C6.71614727,10.4114566 7.07291453,10.1770839 7.5,10.0625 L7.5,1.5 C7.5,1.36458266 7.54947867,1.24739633 7.6484375,1.1484375 C7.74739633,1.04947867 7.86458266,1 8,1 C8.13541734,1 8.25260367,1.04947867 8.3515625,1.1484375 C8.45052133,1.24739633 8.5,1.36458266 8.5,1.5 L8.5,10.0625 Z M8,13 C8.28125141,13 8.5182282,12.9010427 8.7109375,12.703125 C8.9036468,12.5052073 9,12.2708347 9,12 C9,11.7291653 8.9036468,11.4947927 8.7109375,11.296875 C8.5182282,11.0989573 8.28125141,11 8,11 C7.71874859,11 7.4817718,11.0989573 7.2890625,11.296875 C7.0963532,11.4947927 7,11.7291653 7,12 C7,12.2708347 7.0963532,12.5052073 7.2890625,12.703125 C7.4817718,12.9010427 7.71874859,13 8,13 Z M14.5,4.0625 C14.9375022,4.17708391 15.2968736,4.41145656 15.578125,4.765625 C15.8593764,5.11979344 16,5.53124766 16,6 C16,6.46875234 15.8593764,6.88020656 15.578125,7.234375 C15.2968736,7.58854344 14.9375022,7.82291609 14.5,7.9375 L14.5,16.5 C14.5,16.6354173 14.4505213,16.7526037 14.3515625,16.8515625 C14.2526037,16.9505213 14.1354173,17 14,17 C13.8645827,17 13.7473963,16.9505213 13.6484375,16.8515625 C13.5494787,16.7526037 13.5,16.6354173 13.5,16.5 L13.5,7.9375 C13.0729145,7.82291609 12.7161473,7.58854344 12.4296875,7.234375 C12.1432277,6.88020656 12,6.46875234 12,6 C12,5.53124766 12.1432277,5.11979344 12.4296875,4.765625 C12.7161473,4.41145656 13.0729145,4.17708391 13.5,4.0625 L13.5,1.5 C13.5,1.36458266 13.5494787,1.24739633 13.6484375,1.1484375 C13.7473963,1.04947867 13.8645827,1 14,1 C14.1354173,1 14.2526037,1.04947867 14.3515625,1.1484375 C14.4505213,1.24739633 14.5,1.36458266 14.5,1.5 L14.5,4.0625 Z M14,7 C14.2812514,7 14.5182282,6.90104266 14.7109375,6.703125 C14.9036468,6.50520734 15,6.27083469 15,6 C15,5.72916531 14.9036468,5.49479266 14.7109375,5.296875 C14.5182282,5.09895734 14.2812514,5 14,5 C13.7187486,5 13.4817718,5.09895734 13.2890625,5.296875 C13.0963532,5.49479266 13,5.72916531 13,6 C13,6.27083469 13.0963532,6.50520734 13.2890625,6.703125 C13.4817718,6.90104266 13.7187486,7 14,7 Z" id=""></path>
            </g>
        </g>
    </g>
</svg>