<?xml version="1.0" encoding="UTF-8"?>
<svg width="21px" height="16px" viewBox="0 0 21 16" version="1.1" xmlns="http://www.w3.org/2000/svg" xmlns:xlink="http://www.w3.org/1999/xlink">
    <!-- Generator: Sketch 57.1 (83088) - https://sketch.com -->
    <title></title>
    <desc>Created with Sketch.</desc>
    <g id="Symbols" stroke="none" stroke-width="1" fill="none" fill-rule="evenodd">
        <g id="home_button_pressed" transform="translate(-3.000000, 0.000000)" fill="#4B81EC" fill-rule="nonzero">
            <g id="Group-4">
                <path d="M20.5714492,9.32142061 L20.5714492,15.2142848 C20.5714492,15.6439728 20.215422,16 19.785734,16 L15.0714426,16 L15.0714426,11.2857087 L11.9285752,11.2857087 L11.9285752,16 L7.2142904,16 C6.78460239,16 6.42857518,15.6439728 6.42857518,15.2142848 L6.42857518,9.32142061 C6.42857518,9.29686701 6.44085198,9.27231341 6.44085198,9.24775981 L13.5000122,3.42855644 L20.5591724,9.24775981 C20.5714492,9.27231341 20.5714492,9.29686701 20.5714492,9.32142061 Z M23.3091757,8.47432139 L22.548014,9.38280461 C22.48663,9.45646541 22.3884156,9.50557262 22.2902012,9.51784942 C22.2779244,9.51784942 22.2656476,9.51784942 22.2533708,9.51784942 C22.1551564,9.51784942 22.0692188,9.49329581 21.995558,9.43191181 L13.5000122,2.34819801 L5.00446633,9.43191181 C4.91852873,9.49329581 4.82031433,9.53012622 4.70982313,9.51784942 C4.61160872,9.50557262 4.51339432,9.45646541 4.45201032,9.38280461 L3.6908487,8.47432139 C3.55580389,8.31472298 3.58035749,8.05691017 3.7399559,7.92186537 L12.5669753,0.568061961 C13.082601,0.138373949 13.9174234,0.138373949 14.433049,0.568061961 L17.4285883,3.07252923 L17.4285883,0.678553164 C17.4285883,0.457570758 17.6004635,0.285695553 17.8214459,0.285695553 L20.1785916,0.285695553 C20.399574,0.285695553 20.5714492,0.457570758 20.5714492,0.678553164 L20.5714492,5.68748771 L23.2600685,7.92186537 C23.4196669,8.05691017 23.4442205,8.31472298 23.3091757,8.47432139 Z" id=""></path>
            </g>
        </g>
    </g>
</svg>