<?xml version="1.0" encoding="UTF-8"?>
<svg width="20px" height="19px" viewBox="0 0 20 19" version="1.1" xmlns="http://www.w3.org/2000/svg" xmlns:xlink="http://www.w3.org/1999/xlink">
    <!-- Generator: Sketch 57.1 (83088) - https://sketch.com -->
    <title></title>
    <desc>Created with Sketch.</desc>
    <g id="Symbols" stroke="none" stroke-width="1" fill="none" fill-rule="evenodd">
        <g id="offer_selected" transform="translate(-4.000000, 1.000000)" fill="#4B81EC" fill-rule="nonzero">
            <path d="M8.038,3.702 C8.41933524,3.702 8.74199868,3.57000132 9.006,3.306 C9.27000132,3.04199868 9.402,2.71200198 9.402,2.316 C9.402,1.91999802 9.27000132,1.59366795 9.006,1.337 C8.74199868,1.08033205 8.41933524,0.952 8.038,0.952 C7.65666476,0.952 7.33033469,1.08399868 7.059,1.348 C6.78766531,1.61200132 6.652,1.93466476 6.652,2.316 C6.652,2.69733524 6.78399868,3.02366531 7.048,3.295 C7.31200132,3.56633469 7.64199802,3.702 8.038,3.702 Z M22.646,7.904 C22.983335,8.2706685 23.152,8.70333084 23.152,9.202 C23.152,9.70066916 22.983335,10.1333315 22.646,10.5 L16.2,16.946 C15.8333315,17.283335 15.4006692,17.452 14.902,17.452 C14.4033308,17.452 13.9706685,17.283335 13.604,16.946 L5.354,8.696 C5.01666498,8.3293315 4.848,7.89666916 4.848,7.398 L4.848,0.952 C4.848,0.45333084 5.02399824,0.02800176 5.376,-0.324 C5.72800176,-0.67600176 6.15333084,-0.852 6.652,-0.852 L13.098,-0.852 C13.5966692,-0.852 14.0293315,-0.68333502 14.396,-0.346 L22.646,7.904 Z" id=""></path>
        </g>
    </g>
</svg>