<?xml version="1.0" encoding="UTF-8"?>
<svg width="20px" height="19px" viewBox="0 0 20 19" version="1.1" xmlns="http://www.w3.org/2000/svg" xmlns:xlink="http://www.w3.org/1999/xlink">
    <!-- Generator: Sketch 57.1 (83088) - https://sketch.com -->
    <title></title>
    <desc>Created with Sketch.</desc>
    <g id="Symbols" stroke="none" stroke-width="1" fill="none" fill-rule="evenodd">
        <g id="offers_button" transform="translate(-4.000000, 1.000000)" fill="#000000" fill-rule="nonzero">
            <g id="Group-6" transform="translate(0.000000, -1.000000)">
                <path d="M8.038,4.702 C8.41933524,4.702 8.74199868,4.57000132 9.006,4.306 C9.27000132,4.04199868 9.402,3.71200198 9.402,3.316 C9.402,2.91999802 9.27000132,2.59366795 9.006,2.337 C8.74199868,2.08033205 8.41933524,1.952 8.038,1.952 C7.65666476,1.952 7.33033469,2.08399868 7.059,2.348 C6.78766531,2.61200132 6.652,2.93466476 6.652,3.316 C6.652,3.69733524 6.78399868,4.02366531 7.048,4.295 C7.31200132,4.56633469 7.64199802,4.702 8.038,4.702 Z M22.646,8.904 C22.983335,9.2706685 23.152,9.70333084 23.152,10.202 C23.152,10.7006692 22.983335,11.1333315 22.646,11.5 L16.2,17.946 C15.8333315,18.283335 15.4006692,18.452 14.902,18.452 C14.4033308,18.452 13.9706685,18.283335 13.604,17.946 L5.354,9.696 C5.01666498,9.3293315 4.848,8.89666916 4.848,8.398 L4.848,1.952 C4.848,1.45333084 5.02399824,1.02800176 5.376,0.676 C5.72800176,0.32399824 6.15333084,0.148 6.652,0.148 L13.098,0.148 C13.5966692,0.148 14.0293315,0.31666498 14.396,0.654 L22.646,8.904 Z" id=""></path>
            </g>
        </g>
    </g>
</svg>