<?xml version="1.0" encoding="UTF-8"?>
<svg width="17px" height="20px" viewBox="0 0 17 20" version="1.1" xmlns="http://www.w3.org/2000/svg" xmlns:xlink="http://www.w3.org/1999/xlink">
    <!-- Generator: Sketch 57.1 (83088) - https://sketch.com -->
    <title></title>
    <desc>Created with Sketch.</desc>
    <g id="Symbols" stroke="none" stroke-width="1" fill="none" fill-rule="evenodd">
        <g id="profile-copy" transform="translate(-6.000000, 2.000000)" fill="#4B81EC" fill-rule="nonzero">
            <g id="Group-2" transform="translate(0.000000, -2.000000)">
                <path d="M22.3571616,16.3180784 C22.3571616,18.1104912 21.1785888,19.5714304 19.7422031,19.5714304 L9.25781562,19.5714304 C7.82142998,19.5714304 6.64285714,18.1104912 6.64285714,16.3180784 C6.64285714,13.0892799 7.44084917,9.35713255 10.6573709,9.35713255 C11.6517917,10.3269998 13.0022397,10.928563 14.5000094,10.928563 C15.997779,10.928563 17.348227,10.3269998 18.3426479,9.35713255 C21.5591696,9.35713255 22.3571616,13.0892799 22.3571616,16.3180784 Z M19.2143007,5.42855644 C19.2143007,8.03123812 17.102691,10.1428478 14.5000094,10.1428478 C11.8973277,10.1428478 9.78571803,8.03123812 9.78571803,5.42855644 C9.78571803,2.82587477 11.8973277,0.714265108 14.5000094,0.714265108 C17.102691,0.714265108 19.2143007,2.82587477 19.2143007,5.42855644 Z" id=""></path>
            </g>
        </g>
    </g>
</svg>