<?xml version="1.0" encoding="UTF-8"?>
<svg width="16px" height="16px" viewBox="0 0 16 16" version="1.1" xmlns="http://www.w3.org/2000/svg" xmlns:xlink="http://www.w3.org/1999/xlink">
    <!-- Generator: Sketch 57.1 (83088) - https://sketch.com -->
    <title></title>
    <desc>Created with Sketch.</desc>
    <g id="Page-1" stroke="none" stroke-width="1" fill="none" fill-rule="evenodd">
        <g id="Offers" transform="translate(-225.000000, -135.000000)" fill="#ffffff" fill-rule="nonzero">
            <path d="M225.34375,139.71875 C225.260416,139.677083 225.195313,139.614584 225.148438,139.53125 C225.101562,139.447916 225.078125,139.359375 225.078125,139.265625 C225.078125,139.171875 225.104166,139.085938 225.15625,139.007812 C225.208334,138.929687 225.276041,138.869792 225.359375,138.828125 L232.859375,135.0625 C232.932292,135.020833 233.007812,135 233.085938,135 C233.164063,135 233.239583,135.020833 233.3125,135.0625 L240.734375,138.828125 C240.817709,138.869792 240.882812,138.929687 240.929688,139.007812 C240.976563,139.085938 241,139.171875 241,139.265625 C241,139.359375 240.976563,139.447916 240.929688,139.53125 C240.882812,139.614584 240.822917,139.677083 240.75,139.71875 L233.234375,143.765625 C233.203125,143.786458 233.166667,143.799479 233.125,143.804688 C233.083333,143.809896 233.041667,143.8125 233,143.8125 C232.958333,143.8125 232.919271,143.807292 232.882812,143.796875 C232.846354,143.786458 232.807292,143.776042 232.765625,143.765625 L225.34375,139.71875 Z M233.078125,136.0625 L226.65625,139.296875 L233,142.75 L239.421875,139.296875 L233.078125,136.0625 Z M240.640625,142.5 C240.723959,142.541667 240.791666,142.604166 240.84375,142.6875 C240.895834,142.770834 240.921875,142.854166 240.921875,142.9375 C240.921875,143.03125 240.898438,143.119791 240.851562,143.203125 C240.804687,143.286459 240.739584,143.348958 240.65625,143.390625 L233.15625,147.4375 C233.114583,147.458333 233.075521,147.473958 233.039062,147.484375 C233.002604,147.494792 232.963542,147.5 232.921875,147.5 C232.880208,147.5 232.838542,147.494792 232.796875,147.484375 C232.755208,147.473958 232.713542,147.458333 232.671875,147.4375 L225.25,143.390625 C225.177083,143.348958 225.117188,143.286459 225.070312,143.203125 C225.023437,143.119791 225,143.03125 225,142.9375 C225,142.84375 225.023437,142.757813 225.070312,142.679688 C225.117188,142.601562 225.182291,142.541667 225.265625,142.5 L226.84375,141.71875 L227.90625,142.296875 L226.578125,142.96875 L232.921875,146.421875 L239.34375,142.96875 L238.09375,142.328125 L239.15625,141.75 L240.640625,142.5 Z M240.640625,146 C240.723959,146.041667 240.791666,146.104166 240.84375,146.1875 C240.895834,146.270834 240.921875,146.354166 240.921875,146.4375 C240.921875,146.53125 240.898438,146.619791 240.851562,146.703125 C240.804687,146.786459 240.739584,146.848958 240.65625,146.890625 L233.15625,150.9375 C233.114583,150.958333 233.075521,150.973958 233.039062,150.984375 C233.002604,150.994792 232.963542,151 232.921875,151 C232.880208,151 232.838542,150.994792 232.796875,150.984375 C232.755208,150.973958 232.713542,150.958333 232.671875,150.9375 L225.25,146.890625 C225.177083,146.848958 225.117188,146.786459 225.070312,146.703125 C225.023437,146.619791 225,146.53125 225,146.4375 C225,146.34375 225.023437,146.257813 225.070312,146.179688 C225.117188,146.101562 225.182291,146.041667 225.265625,146 L226.75,145.328125 L227.8125,145.90625 L226.578125,146.46875 L232.921875,149.921875 L239.34375,146.46875 L238.171875,145.890625 L239.234375,145.3125 L240.640625,146 Z" id=""></path>
        </g>
    </g>
</svg>